<?xml version="1.0" encoding="UTF-8" standalone="no"?>
<!-- Created with Inkscape (http://www.inkscape.org/) -->

<svg
   xmlns:osb="http://www.openswatchbook.org/uri/2009/osb"
   xmlns:dc="http://purl.org/dc/elements/1.1/"
   xmlns:cc="http://creativecommons.org/ns#"
   xmlns:rdf="http://www.w3.org/1999/02/22-rdf-syntax-ns#"
   xmlns:svg="http://www.w3.org/2000/svg"
   xmlns="http://www.w3.org/2000/svg"
   xmlns:sodipodi="http://sodipodi.sourceforge.net/DTD/sodipodi-0.dtd"
   xmlns:inkscape="http://www.inkscape.org/namespaces/inkscape"
   width="6in"
   height="4in"
   viewBox="0 0 540.00001 360.00001"
   id="svg2"
   version="1.1"
   inkscape:version="0.92.2 5c3e80d, 2017-08-06"
   sodipodi:docname="logo-bw.svg"
   inkscape:export-filename="/Users/pierce/Projects/madison-python/pair-night/flyer/madpy-pair-night.png"
   inkscape:export-xdpi="154.39"
   inkscape:export-ydpi="154.39"
   style="enable-background:new">
  <defs
     id="defs4">
    <linearGradient
       id="linearGradient4333"
       osb:paint="solid">
      <stop
         style="stop-color:#8da0cb;stop-opacity:1;"
         offset="0"
         id="stop4335" />
    </linearGradient>
    <linearGradient
       id="linearGradient4325"
       osb:paint="solid">
      <stop
         style="stop-color:#8aaad9;stop-opacity:0.94117647;"
         offset="0"
         id="stop4327" />
    </linearGradient>
    <linearGradient
       id="linearGradient4319"
       osb:paint="solid">
      <stop
         style="stop-color:#8da0cb;stop-opacity:0;"
         offset="0"
         id="stop4321" />
    </linearGradient>
    <clipPath
       id="clipPath3390"
       clipPathUnits="userSpaceOnUse">
      <path
         inkscape:connector-curvature="0"
         id="path3392"
         d="M 0,132 132,132 132,0 0,0 0,132 Z" />
    </clipPath>
  </defs>
  <sodipodi:namedview
     id="base"
     pagecolor="#ffffff"
     bordercolor="#666666"
     borderopacity="1.0"
     inkscape:pageopacity="0.0"
     inkscape:pageshadow="2"
     inkscape:zoom="1.03"
     inkscape:cx="444.03731"
     inkscape:cy="170.25813"
     inkscape:document-units="px"
     inkscape:current-layer="layer1"
     showgrid="false"
     inkscape:window-width="1280"
     inkscape:window-height="699"
     inkscape:window-x="0"
     inkscape:window-y="1"
     inkscape:window-maximized="1"
     units="in"
     showborder="true" />
  <metadata
     id="metadata7">
    <rdf:RDF>
      <cc:Work
         rdf:about="">
        <dc:format>image/svg+xml</dc:format>
        <dc:type
           rdf:resource="http://purl.org/dc/dcmitype/StillImage" />
        <dc:title></dc:title>
      </cc:Work>
    </rdf:RDF>
  </metadata>
  <g
     inkscape:groupmode="layer"
     id="layer1"
     inkscape:label="background"
     style="display:inline" />
  <g
     inkscape:groupmode="layer"
     id="layer2"
     inkscape:label="magpy"
     style="display:inline">
    <path
       inkscape:connector-curvature="0"
       id="path3396"
       style="fill:#000000;fill-opacity:1;fill-rule:evenodd;stroke:none;stroke-opacity:1"
       d="m 186.93259,149.84039 c 0.0353,2.30886 1.95765,4.20601 4.25474,4.20601 2.40463,-0.005 4.33539,-1.97614 4.28498,-4.3774 -0.0471,-2.2971 -1.97445,-4.20771 -4.25642,-4.22618 -2.36262,-0.0202 -4.31858,1.9879 -4.2833,4.39757 m 145.0224,-62.777553 c -3.73047,0 -7.12484,0.107545 -10.51082,-0.04541 -1.74929,-0.0773 -2.3996,0.588136 -2.89699,2.176096 -5.82927,18.507787 -11.73078,36.993707 -17.60541,55.489717 -0.63687,2.00638 -1.225,4.03124 -1.8501,6.08467 4.2749,0.52766 4.27154,0.52766 5.79564,-2.88689 7.21727,-16.20062 14.44461,-32.39784 21.6585,-48.601807 1.75937,-3.9506 3.50362,-7.91127 5.40918,-12.216414 M 178.27691,173.76237 c 8.57502,27.09959 38.68586,49.52434 73.57069,42.09872 35.16041,-7.48445 51.15432,-39.4538 50.43343,-60.50736 -5.94856,0 -11.90553,0.0958 -17.85746,-0.0504 -2.05343,-0.0537 -2.9726,0.52596 -3.70189,2.5273 -4.2665,11.73247 -10.9326,21.89713 -20.35956,30.15789 -7.67937,6.72323 -16.39218,11.58795 -26.62908,12.68692 -19.54458,2.09713 -35.96028,-4.46478 -49.1782,-18.96651 -2.15258,-2.35927 -3.98083,-5.01932 -6.27793,-7.94656 m 65.02761,47.79188 -11.23507,0 0,2.00638 c 0,9.11778 0,18.23387 -0.002,27.35668 0,0.53437 0.19996,1.24853 -0.0672,1.57284 -0.60494,0.74442 -1.44849,1.80475 -2.18282,1.79466 -0.7192,-0.0118 -1.75937,-1.06369 -2.0467,-1.87699 -0.3613,-1.01495 -0.0991,-2.24837 -0.0991,-3.38766 -0.002,-8.85395 -0.0252,-17.70456 0.0252,-26.55682 0.0101,-1.31406 -0.35121,-1.79466 -1.71232,-2.05345 -29.72796,-5.65956 -52.06029,-29.84704 -55.38409,-59.90748 -0.18149,-1.65014 -0.25206,-3.31036 -0.38649,-5.1487 -1.84506,0 -3.50865,-0.0252 -5.17224,0.009 -1.54091,0.0303 -2.89362,-0.19996 -2.9894,-2.12402 -0.074,-1.50225 0.98975,-2.25339 3.10368,-2.27187 1.73079,-0.0118 3.45991,-7.3e-4 5.16214,-7.3e-4 2.29709,-19.08751 17.24245,-27.92972 29.1043,-28.58505 13.10364,-0.72257 27.62219,7.19371 32.10378,24.25469 1.97109,-0.5142 3.95226,-1.01832 5.92335,-1.55269 14.66811,-3.97915 29.33116,-7.97006 43.99758,-11.94586 2.60123,-0.70577 3.86822,0.32095 3.59937,3.02134 -0.48394,4.85127 -1.07881,9.69078 -1.65183,14.79244 3.27173,0 6.73164,0.0638 10.18148,-0.079 0.45873,-0.0185 1.05527,-1.03511 1.26532,-1.69382 4.57905,-14.27657 9.11777,-28.56994 13.65482,-42.85994 2.20803,-6.955117 4.45303,-13.898477 6.57704,-20.88216 0.59989,-1.982854 1.62325,-2.819687 3.73549,-2.772637 5.03108,0.112587 10.06216,0.03024 15.08988,0.03865 3.64476,0.0034 4.37236,1.109055 2.90706,4.405973 -9.09928,20.428454 -18.20195,40.853544 -27.29619,61.280324 -0.32096,0.7276 -0.61335,1.46697 -1.08216,2.5794 1.58459,0 2.94067,0 4.29674,0 1.49554,0.004 2.53569,0.66878 2.52898,2.22651 -0.0118,1.54931 -1.02001,2.19962 -2.54411,2.16937 -1.80136,-0.037 -3.5977,-0.009 -5.20583,-0.009 -4.10352,36.35012 -23.84301,58.21027 -59.73942,66.11312 l 0,1.73921 c 0,9.18666 7.3e-4,18.37502 -0.004,27.56001 0,0.66879 0.17307,1.51906 -0.16132,1.95933 -0.54108,0.70744 -1.45857,1.58796 -2.18114,1.55939 -0.71081,-0.0319 -1.50563,-1.01494 -2.01815,-1.74927 -0.28734,-0.41338 -0.0958,-1.16956 -0.0958,-1.77112 -0.002,-8.92287 0,-17.84067 0,-26.75681 l 0,-2.45336 z" />
  </g>
  <g
     inkscape:groupmode="layer"
     id="layer3"
     inkscape:label="squared"
     style="display:inline">
    <text
       xml:space="preserve"
       style="font-style:normal;font-weight:normal;line-height:0%;font-family:sans-serif;letter-spacing:0px;word-spacing:0px;display:inline;fill:#000000;fill-opacity:1;stroke:none;stroke-width:1px;stroke-linecap:butt;stroke-linejoin:miter;stroke-opacity:1"
       x="339.16959"
       y="106.62936"
       id="text4288"><tspan
         sodipodi:role="line"
         id="tspan4290"
         x="339.16959"
         y="106.62936"
         style="font-style:normal;font-variant:normal;font-weight:normal;font-stretch:normal;font-size:75px;line-height:1.25;font-family:Menlo;-inkscape-font-specification:Menlo">2</tspan></text>
  </g>
  <g
     inkscape:groupmode="layer"
     id="layer5"
     inkscape:label="pair night"
     style="display:inline">
    <text
       xml:space="preserve"
       style="font-style:normal;font-weight:normal;line-height:0%;font-family:sans-serif;letter-spacing:0px;word-spacing:0px;fill:#000000;fill-opacity:1;stroke:none;stroke-width:1px;stroke-linecap:butt;stroke-linejoin:miter;stroke-opacity:1"
       x="149.21143"
       y="298.63431"
       id="text4160"><tspan
         sodipodi:role="line"
         id="tspan4162"
         x="149.21143"
         y="298.63431"
         style="font-size:50px;line-height:1.25">Pair night</tspan></text>
  </g>
</svg>
