<?xml version="1.0" encoding="UTF-8" standalone="no"?>
<!-- Created with Inkscape (http://www.inkscape.org/) -->

<svg
   xmlns:osb="http://www.openswatchbook.org/uri/2009/osb"
   xmlns:dc="http://purl.org/dc/elements/1.1/"
   xmlns:cc="http://creativecommons.org/ns#"
   xmlns:rdf="http://www.w3.org/1999/02/22-rdf-syntax-ns#"
   xmlns:svg="http://www.w3.org/2000/svg"
   xmlns="http://www.w3.org/2000/svg"
   xmlns:xlink="http://www.w3.org/1999/xlink"
   xmlns:sodipodi="http://sodipodi.sourceforge.net/DTD/sodipodi-0.dtd"
   xmlns:inkscape="http://www.inkscape.org/namespaces/inkscape"
   width="4in"
   height="4in"
   viewBox="0 0 360.00001 360.00001"
   id="svg2"
   version="1.1"
   inkscape:version="0.91 r13725"
   sodipodi:docname="madpy-pair-night.svg"
   enable-background="new"
   inkscape:export-filename="/Users/pierce/Projects/madison-python/pair-night/flyer/madpy-pair-night.png"
   inkscape:export-xdpi="154.19"
   inkscape:export-ydpi="154.19">
  <defs
     id="defs4">
    <linearGradient
       id="linearGradient4333"
       osb:paint="solid">
      <stop
         style="stop-color:#8da0cb;stop-opacity:1;"
         offset="0"
         id="stop4335" />
    </linearGradient>
    <linearGradient
       id="linearGradient4325"
       osb:paint="solid">
      <stop
         style="stop-color:#8aaad9;stop-opacity:0.94117647;"
         offset="0"
         id="stop4327" />
    </linearGradient>
    <linearGradient
       id="linearGradient4319"
       osb:paint="solid">
      <stop
         style="stop-color:#8da0cb;stop-opacity:0;"
         offset="0"
         id="stop4321" />
    </linearGradient>
    <clipPath
       id="clipPath3390"
       clipPathUnits="userSpaceOnUse">
      <path
         inkscape:connector-curvature="0"
         id="path3392"
         d="M 0,132 132,132 132,0 0,0 0,132 Z" />
    </clipPath>
    <linearGradient
       inkscape:collect="always"
       xlink:href="#linearGradient4325"
       id="linearGradient4337"
       x1="-1.2179487"
       y1="181.15385"
       x2="361.47437"
       y2="181.15385"
       gradientUnits="userSpaceOnUse"
       gradientTransform="matrix(1.0143369,0,0,1.0143369,-0.01838067,-2.0330852)" />
  </defs>
  <sodipodi:namedview
     id="base"
     pagecolor="#ffffff"
     bordercolor="#666666"
     borderopacity="1.0"
     inkscape:pageopacity="0.0"
     inkscape:pageshadow="2"
     inkscape:zoom="0.78"
     inkscape:cx="212.50797"
     inkscape:cy="90.045067"
     inkscape:document-units="px"
     inkscape:current-layer="layer1"
     showgrid="false"
     inkscape:window-width="1280"
     inkscape:window-height="689"
     inkscape:window-x="0"
     inkscape:window-y="1"
     inkscape:window-maximized="1"
     units="in"
     showborder="true" />
  <metadata
     id="metadata7">
    <rdf:RDF>
      <cc:Work
         rdf:about="">
        <dc:format>image/svg+xml</dc:format>
        <dc:type
           rdf:resource="http://purl.org/dc/dcmitype/StillImage" />
        <dc:title></dc:title>
      </cc:Work>
    </rdf:RDF>
  </metadata>
  <g
     inkscape:groupmode="layer"
     id="layer1"
     inkscape:label="background"
     style="display:inline">
    <rect
       style="opacity:1;fill:url(#linearGradient4337);fill-opacity:1.0;stroke:none;stroke-width:5;stroke-miterlimit:4;stroke-dasharray:none;stroke-opacity:1"
       id="rect4331"
       width="362.82053"
       height="362.82053"
       x="1.2820513"
       y="0.30769229" />
  </g>
  <g
     inkscape:groupmode="layer"
     id="layer2"
     inkscape:label="magpy"
     style="display:inline">
    <path
       inkscape:connector-curvature="0"
       id="path3396"
       style="fill:#000000;fill-opacity:1;fill-rule:evenodd;stroke:none;stroke-opacity:1"
       d="m 72.177182,134.70083 c 0.04837,3.16476 2.683364,5.7652 5.831998,5.7652 3.296047,-0.007 5.942557,-2.7087 5.873458,-6.00013 -0.06449,-3.14865 -2.706398,-5.76752 -5.834302,-5.79285 -3.238463,-0.0277 -5.919522,2.72483 -5.871154,6.02778 M 270.96034,48.651219 c -5.11337,0 -9.76606,0.147412 -14.40725,-0.06224 -2.39776,-0.105954 -3.28914,0.806162 -3.97091,2.982796 -7.99022,25.368734 -16.07946,50.707525 -24.13186,76.060125 -0.87295,2.75016 -1.67912,5.52565 -2.53595,8.3403 5.85964,0.72326 5.85503,0.72326 7.94413,-3.95708 9.89276,-22.20629 19.79933,-44.407945 29.68746,-66.618834 2.41157,-5.415107 4.80242,-10.844022 7.41438,-16.745116 M 60.312798,167.49084 c 11.753826,37.1456 53.026962,67.88335 100.843822,57.705 48.1946,-10.25898 70.11756,-54.07957 69.12943,-82.93784 -8.15373,0 -16.31899,0.13131 -24.47733,-0.0691 -2.81465,-0.0736 -4.07456,0.72094 -5.07421,3.46418 -5.84812,16.08178 -14.98538,30.01455 -27.90698,41.33763 -10.52616,9.21558 -22.46886,15.88368 -36.50066,17.39005 -26.78989,2.87454 -49.290993,-6.11991 -67.408881,-25.99753 -2.950549,-3.23386 -5.456557,-6.88001 -8.605191,-10.8924 m 89.133762,65.50864 -15.39998,0 0,2.75016 c 0,12.4978 0,24.99329 -0.002,37.498 0,0.73245 0.27409,1.71135 -0.0921,2.1559 -0.8292,1.02037 -1.98547,2.47377 -2.99201,2.45994 -0.98582,-0.0161 -2.41158,-1.45801 -2.80544,-2.57281 -0.49522,-1.39119 -0.1359,-3.08184 -0.1359,-4.64348 -0.002,-12.13617 -0.0346,-24.26775 0.0346,-36.40161 0.0138,-1.80119 -0.4814,-2.45995 -2.34708,-2.81467 -40.748303,-7.75759 -71.359381,-40.91154 -75.915342,-82.11558 -0.248758,-2.26186 -0.345497,-4.53753 -0.529763,-7.05736 -2.529041,0 -4.809324,-0.0346 -7.089608,0.0118 -2.112142,0.0415 -3.966312,-0.27408 -4.0976,-2.9114 -0.101344,-2.05915 1.356654,-3.08874 4.254226,-3.11407 2.372416,-0.0161 4.742528,-0.001 7.075788,-0.001 3.148634,-26.16338 23.634334,-38.283452 39.893446,-39.181733 17.961263,-0.990429 37.861923,9.860483 44.004873,33.246073 2.70179,-0.70482 5.41739,-1.39581 8.11918,-2.12828 20.10566,-5.45425 40.20441,-10.92461 60.30776,-16.37427 3.56553,-0.9674 5.30221,0.43992 4.93369,4.14137 -0.66335,6.64967 -1.47873,13.28322 -2.26417,20.27609 4.48457,0 9.2271,0.0875 13.95582,-0.10827 0.62878,-0.0254 1.44646,-1.41884 1.73438,-2.32173 6.27654,-19.56899 12.49779,-39.161 18.71676,-58.748407 3.02655,-9.533427 6.10379,-19.050731 9.01518,-28.623318 0.82228,-2.717912 2.225,-3.864964 5.12027,-3.800472 6.89613,0.154323 13.79226,0.04146 20.68379,0.05298 4.9959,0.0046 5.99323,1.520189 3.98473,6.039296 -12.47245,28.001423 -24.94953,55.998221 -37.41507,83.997351 -0.43993,0.99733 -0.84072,2.01078 -1.48333,3.53559 2.17202,0 4.0308,0 5.88958,0 2.04995,0.005 3.47569,0.91671 3.46649,3.05189 -0.0161,2.12367 -1.39813,3.01505 -3.48723,2.97358 -2.46914,-0.0507 -4.93139,-0.0118 -7.13567,-0.0118 -5.62471,49.82535 -32.68176,79.7892 -81.88522,90.6217 l 0,2.38393 c 0,12.59223 0.001,25.18676 -0.005,37.77669 0,0.91672 0.23723,2.0822 -0.22113,2.68567 -0.74166,0.9697 -1.99928,2.17663 -2.9897,2.13747 -0.97431,-0.0437 -2.06377,-1.39119 -2.7663,-2.39773 -0.39385,-0.56663 -0.13128,-1.60313 -0.13128,-2.4277 -0.002,-12.23063 0,-24.45432 0,-36.67573 l 0,-3.36284 z" />
  </g>
  <g
     inkscape:groupmode="layer"
     id="layer3"
     inkscape:label="squared"
     style="display:inline">
    <text
       xml:space="preserve"
       style="font-style:normal;font-weight:normal;font-size:40px;line-height:125%;font-family:sans-serif;letter-spacing:0px;word-spacing:0px;display:inline;fill:#000000;fill-opacity:1;stroke:none;stroke-width:1px;stroke-linecap:butt;stroke-linejoin:miter;stroke-opacity:1"
       x="287.43973"
       y="98.736588"
       id="text4288"
       sodipodi:linespacing="125%"><tspan
         sodipodi:role="line"
         id="tspan4290"
         x="287.43973"
         y="98.736588"
         style="font-style:normal;font-variant:normal;font-weight:normal;font-stretch:normal;font-size:125px;font-family:Menlo;-inkscape-font-specification:Menlo">2</tspan></text>
  </g>
  <g
     inkscape:groupmode="layer"
     id="layer5"
     inkscape:label="pair night"
     style="display:inline">
    <text
       xml:space="preserve"
       style="font-style:normal;font-weight:normal;font-size:40px;line-height:125%;font-family:sans-serif;letter-spacing:0px;word-spacing:0px;fill:#000000;fill-opacity:1;stroke:none;stroke-width:1px;stroke-linecap:butt;stroke-linejoin:miter;stroke-opacity:1"
       x="29.014282"
       y="340.21356"
       id="text4160"
       sodipodi:linespacing="125%"><tspan
         sodipodi:role="line"
         id="tspan4162"
         x="29.014282"
         y="340.21356"
         style="font-size:62.5px">Pair night</tspan></text>
  </g>
</svg>
